<svg width="23" height="30" viewBox="0 0 23 30" fill="none" xmlns="http://www.w3.org/2000/svg">
<g clip-path="url(#clip0_3304_222)">
<path d="M22.5356 0.583731L18.8473 0.00614543C18.7381 -0.016958 18.629 0.029246 18.5853 0.0754529L17.0139 2.24718C16.9048 2.38579 16.883 2.57062 16.9266 2.73235C16.9703 2.89407 16.8394 3.03269 16.6866 3.00959L15.3989 2.70924C15.2024 2.66304 14.9842 2.73235 14.8532 2.91718L9.74617 9.8482C9.65893 9.98682 9.4843 10.0331 9.33151 9.9637L7.38909 9.03961C7.21449 8.94714 7.01807 8.97026 6.86529 9.08576L5.88317 9.80197C5.73039 9.91747 5.51214 9.94058 5.33754 9.8482L4.85739 9.59408C4.55184 9.43235 4.18082 9.6172 4.09352 9.9637L3.74431 11.6041C3.65701 11.9968 3.80979 12.3896 4.13717 12.5975L4.87921 13.0826L7.25814 14.6306L8.41488 15.393C8.74222 15.601 9.15696 15.5547 9.44068 15.3006L11.3831 13.4986C11.5358 13.3599 11.7759 13.3137 11.9506 13.4292L12.5398 13.7527C12.7363 13.8682 12.9763 13.822 13.1291 13.6602L14.1112 12.6899C14.2639 12.5282 14.504 12.5051 14.6787 12.5975L16.1409 13.3137C16.3592 13.4292 16.6211 13.3599 16.7739 13.152L17.4504 12.2278L22.5793 5.27372C22.8194 4.95027 22.6666 4.4651 22.2738 4.37269L21.1389 4.09545C20.8988 4.04924 20.7897 3.7258 20.9643 3.54097L22.7321 1.20752C22.9067 0.930282 22.7976 0.629938 22.5356 0.583731Z" fill="white"/>
<path d="M5.62081 14.5844C5.51168 14.5151 5.40255 14.6306 5.4462 14.7461L5.99183 16.2709C6.03548 16.3864 6.03548 16.502 6.01365 16.6175L5.5335 18.6044C5.51168 18.743 5.55533 18.8816 5.64263 18.951L7.0176 20.0831C7.14856 20.1754 7.32316 20.1754 7.43228 20.0599L8.87274 18.7199C8.96006 18.6506 9.06915 18.6044 9.15646 18.5813L10.7933 18.3964C10.9025 18.3734 10.9461 18.2117 10.837 18.1423L5.62081 14.5844Z" fill="white"/>
<path d="M5.14078 19.7133C5.05348 19.6441 4.92253 19.621 4.81341 19.6672L3.65668 20.2678C3.5912 20.2909 3.54755 20.3603 3.5039 20.4296L1.03768 26.8754C1.03768 26.8985 1.03768 26.8985 1.03768 26.9216C1.0595 26.9448 1.08133 26.9679 1.12497 26.9679L1.69243 26.7368C1.71426 26.7368 1.73607 26.7368 1.7579 26.7368C1.77972 26.7599 1.80155 26.8061 1.77972 26.8293L0.0118963 29.902C-0.0317538 29.9713 0.0555484 30.0406 0.0991982 29.9713L6.49394 23.1789C6.55941 23.1096 6.58124 23.0403 6.60306 22.9479L6.73401 21.192C6.73401 21.0765 6.69036 20.984 6.62489 20.9148L5.14078 19.7133Z" fill="white"/>
</g>
<defs>
<clipPath id="clip0_3304_222">
<rect width="23" height="30" fill="white"/>
</clipPath>
</defs>
</svg>
